<svg height="160" width="160" xmlns="http://www.w3.org/2000/svg"><path d="m0 0c1.0725-.03287109 2.145-.06574219 3.25-.09960938 9.36697376-.06267439 16.28238418 2.46434861 23.1875 8.84960938 4.21593546 4.58383549 7.79856462 9.42060227 9.1875 15.5625.495 1.546875.495 1.546875 1 3.125 1.65680412.69081279 3.32539391 1.35353526 5 2 14.09217692 10.71639821 22.57191644 24.63999026 25.59375 42.10546875 1.73756575 16.65724086-2.28784397 33.22222558-12.6640625 46.5546875-5.09379785 5.88360274-10.88682441 11.81841221-17.9296875 15.33984375-1.11491212 2.19452359-2.16036922 4.39028499-3.1875 6.625-4.79636329 9.91415171-10.48528011 15.18875676-20.8125 19.375-15.34336357 4.96772837-34.04928277-1.25359189-48-8-20.43461522-11.613918-33.74762735-28.91557045-40.375-51.375-5.2757091-21.24429037-1.57275442-42.95888019 9.22021484-61.73193359 11.62829129-19.0625308 28.55234226-30.50767037 49.76806641-36.99853516 5.53150822-1.3303544 11.09920195-1.30162394 16.76171875-1.33203125zm-38.8203125 40.0078125c-5.18745693 6.00923228-8.82651199 11.98337317-11.5546875 19.4296875-.31839844.8146875-.63679688 1.629375-.96484375 2.46875-4.83363339 14.43407574-2.99127412 31.21750597 3.5078125 44.7421875 8.06340237 14.65066701 20.50707124 25.95488885 36.7421875 30.76171875 12.81045459 3.05010823 24.09635637 2.67232132 36.71484375-.97265625.87140625-.17402344 1.7428125-.34804687 2.640625-.52734375 2.78861096-.78025704 4.2555348-1.46124418 6.359375-3.47265625 2.46176357-5.15238457 3.78866148-10.43763142 5-16 .15694336-.70930664.31388672-1.41861328.47558594-2.14941406 5.51671067-25.61414698 4.86298801-51.72942921-1.97558594-77.03808594-.20133545-.74854248-.4026709-1.49708496-.61010742-2.26831055-1.41480172-4.9602916-1.41480172-4.9602916-4.88989258-8.54418945-24.27343018-12.51529152-53.04127538-5.77450607-71.4453125 13.5703125z" fill="#fff" transform="translate(77.375 -.4375)"/></svg>