<svg fill="none" height="29" viewBox="0 0 29 29" width="29" xmlns="http://www.w3.org/2000/svg"><path clip-rule="evenodd" d="m14.2098 29h11.8662c.2608 0 .5188-.0538.7585-.1579.2396-.1041.4559-.2565.6356-.4478s.3191-.4176.4098-.6652.1307-.5112.1177-.7749c-.0323-.5081-.2559-.9843-.6247-1.3305-.3687-.3462-.8545-.536-1.3574-.5303h-10.2676-.0068v-9.7616c0-.3081-.06-.6132-.1765-.8979-.1164-.2847-.2871-.5434-.5023-.7612-.2152-.2179-.4707-.3908-.7518-.5087-.2812-.1179-.5825-.1786-.8869-.1786h-9.56797-.00687v-11.03501c.00027-.26342-.05223-.52415-.1543-.76645-.10208-.242292-.25162-.461115-.43958-.643237s-.41045-.323763-.65401-.416358c-.24355-.0925962-.50313-.13422503-.76302-.12237108-.50193.03308998-.972239.25975908-1.3141.63334408-.341861.373582-.52926196.865662-.52362649 1.374922v12.52556c0 .6223.24415549 1.2191.67875849 1.6592.434598.44 1.024048.6872 1.638668.6872h7.5131c.54685 0 1.07125.22 1.45785.6115.3867.3915.6039.9225.6039 1.4761v7.6837c0 .6224.2442 1.2192.6788 1.6592.4346.4401 1.024.6873 1.6386.6873zm10.8131-13.551c.3539.3821.841.6137 1.3608.6472.2682.0117.536-.0309.7874-.1253.2513-.0944.481-.2387.6752-.4241.1941-.1854.3488-.4082.4548-.6549.1059-.2467.1609-.5122.1616-.7807v-12.66458c.0002-.18973-.0371-.37763-.1096-.552946-.0725-.175319-.1789-.334611-.313-.468767-.1342-.134155-.2935-.24054-.4688-.313058-.1753-.0725177-.3632-.10974636-.553-.10955916h-13.2337c-.2693-.00027284-.5359.05407166-.7837.15974716-.2477.105675-.4714.260486-.6576.455078-.1863.194592-.3311.424925-.4258.677065-.0946.25215-.1372.52087-.1251.78993.0332.51964.2645 1.00672.6463 1.36074.3819.35402.885.54795 1.4057.54179h9.1853c.3847 0 .7537.15273 1.0258.42462.2722.27189.4253.6407.4257 1.0254v8.60624c-.0062.5208.1877 1.0241.5417 1.4061z" fill="#fff" fill-rule="evenodd"/></svg>