<svg xmlns="http://www.w3.org/2000/svg" viewBox="0 0 142 142"><path fill="#fbfafa" stroke="#fbfafa" d="M65.5 4.659c-5.519 1.178-14.659 5.045-20.212 8.55-29.448 18.592-31.775 67.256-3.922 82.067 9.231 4.909 27.928 2.368 34.556-4.696l1.952-2.08-7.187-.041c-23.226-.133-37.304-26.569-25.709-48.28 14.079-26.362 53.183-28.35 79.551-4.046 5.666 5.223 5.671 4.275.018-3.072C108.247 11.877 84.713.558 65.5 4.659M31.179 18.597C8.986 36.353-.95 59.414 4.528 80.448c10.932 41.969 70.954 55.589 89.666 20.347 4.953-9.329 3.001-25.361-4.124-33.87L87.201 63.5l.536 6.751c2.17 27.301-34.653 41.874-55.808 22.086C12.05 73.743 13.66 41.503 35.69 17c2.472-2.75 4.324-5 4.115-5-.21 0-4.091 2.968-8.626 6.597M79.5 22.76c-29.701 1.931-46.096 32.156-28.821 53.132l1.97 2.393-.036-6.393c-.146-26.195 34.769-39.74 55.166-21.401 20.404 18.345 18.663 52.011-3.888 75.214-6.42 6.604-5.147 6.78 3.21.443 28.238-21.413 37.245-49.171 24.274-74.807C122.523 33.845 99.986 21.428 79.5 22.76M75.437 46.6c-2.234.793-5.538 2.674-7.342 4.179l-3.279 2.738 5.842.081c27.9.39 40.012 36.504 19.196 57.239-18.388 18.318-50.443 15.633-73.645-6.167-6.47-6.078-5.513-3.7 2.637 6.556 20.765 26.13 45.713 33.426 71.899 21.028 29.888-14.151 38.77-59.786 15.605-80.177-7.652-6.736-20.802-9.066-30.913-5.477" fill-rule="evenodd"/><path fill="#960645" stroke="#960645" d="M66.777 5.049C42.51 8.749 23.677 29.906 22.316 55c-1.642 30.248 21.278 50.404 45.477 39.994 8.461-3.64 9.252-5.482 2.384-5.553-25.476-.265-39.37-34.288-22.436-54.941 16.473-20.09 47.676-21.376 72.12-2.974 7.229 5.442 7.306 5.473 4.317 1.699C107.686 12.402 86.561 2.033 66.777 5.049M26.719 23.095C-.417 47.586-4.038 80.334 17.851 103.283c32.742 34.327 93.485 11.237 76.192-28.962-3.705-8.611-5.619-9.48-5.577-2.531.159 26.418-35.176 40.073-56.158 21.702-19.234-16.84-19.739-49.236-1.119-71.742 5.366-6.485 3.626-5.962-4.47 1.345m45.041 1.463c-21.687 5.256-33.173 25.616-24.893 44.121 3.59 8.022 5.721 9.428 5.303 3.501-1.677-23.815 30.697-39.301 52.279-25.006 23.161 15.341 24.011 52.089 1.78 76.943l-4.729 5.287 4.862-3.327c17.153-11.739 29.098-30.47 30.337-47.575 2.435-33.606-31.736-61.992-64.939-53.944m6.179 21.807c-2.509.676-6.109 2.334-8 3.682L66.5 52.5l6.14.677C89.683 55.057 100.5 67.801 100.5 86c0 15.246-7.256 26.254-21.777 33.037-18.933 8.845-40.745 4.709-60.197-11.414l-4.973-4.123L16 106.968c23.963 33.963 62.61 40.682 87.635 15.237 30.586-31.1 11.985-86.001-25.696-75.84" fill-rule="evenodd"/></svg>